<?xml version="1.0" encoding="utf-8"?>
<!-- Generator: Adobe Illustrator 27.3.1, SVG Export Plug-In . SVG Version: 6.00 Build 0)  -->
<svg version="1.1" id="Layer_1" xmlns="http://www.w3.org/2000/svg" xmlns:xlink="http://www.w3.org/1999/xlink" x="0px" y="0px"
	 viewBox="0 0 640 972" style="enable-background:new 0 0 640 972;" xml:space="preserve">
<style type="text/css">
	.st0{fill-rule:evenodd;clip-rule:evenodd;fill:#545454;}
	.st1{fill-rule:evenodd;clip-rule:evenodd;fill:#5C4938;}
	.st2{fill-rule:evenodd;clip-rule:evenodd;fill:#68403F;}
	.st3{fill-rule:evenodd;clip-rule:evenodd;fill:#69425A;}
	.st4{fill-rule:evenodd;clip-rule:evenodd;fill:#60436D;}
	.st5{fill-rule:evenodd;clip-rule:evenodd;fill:#4C4371;}
	.st6{fill-rule:evenodd;clip-rule:evenodd;fill:#3E4E69;}
	.st7{fill:#CB68F9;}
	.st8{font-family:'ArialMT';}
	.st9{font-size:11.7px;}
	.st10{fill:#ABABAB;}
	.st11{font-family:'Arial-BoldMT';}
	.st12{fill:#F366BB;}
	.st13{fill:#8769FD;}
	.st14{fill:#FB6762;}
	.st15{fill:#F79438;}
	.st16{fill:#4F91FC;}
	.st17{fill:none;stroke:#FFFFFF;stroke-width:2;stroke-linecap:round;stroke-linejoin:round;}
	.st18{fill:none;stroke:#F79438;stroke-width:2;stroke-linecap:round;stroke-linejoin:round;}
	.st19{fill:none;stroke:#FB6762;stroke-width:2;stroke-linecap:round;stroke-linejoin:round;}
	.st20{fill:none;stroke:#F366BB;stroke-width:2;stroke-linecap:round;stroke-linejoin:round;}
	.st21{fill:none;stroke:#CB68F9;stroke-width:2;stroke-linecap:round;stroke-linejoin:round;}
	.st22{fill:none;stroke:#8769FD;stroke-width:2;stroke-linecap:round;stroke-linejoin:round;}
	.st23{fill:none;stroke:#4F91FC;stroke-width:2;stroke-linecap:round;stroke-linejoin:round;}
</style>
<g id="items">
	<g id="blend">
		<g id="g-root-cp_start_g-start_hvvuhzh9kbnu-fill" transform="translate(32, 464.03466796875)">
			<g id="cp_start_g-start_hvvuhzh9kbnu-fill-merged">
				<g>
					<path class="st0" d="M10,21c0-6.1,4.9-11,11-11h130c6.1,0,11,4.9,11,11v50c0,6.1-4.9,11-11,11H21c-6.1,0-11-4.9-11-11V21"/>
				</g>
			</g>
		</g>
		
			<g id="g-root-cp_start_g-start_hvvuhzh9kbnu-fill_00000135651066824786861870000009927531624336920763_" transform="translate(32, 463.99267578125)">
			<g id="cp_start_g-start_hvvuhzh9kbnu-fill-merged_00000044137107910899676610000009774046854742960573_">
				<g>
					<path class="st0" d="M10,21c0-6.1,4.9-11,11-11h130c6.1,0,11,4.9,11,11v50c0,6.1-4.9,11-11,11H21c-6.1,0-11-4.9-11-11V21"/>
				</g>
			</g>
		</g>
		<g id="g-root-cp_1_g-1_dg2cdjh9kcg3-fill" transform="translate(268, 135.99267578125)">
			<g id="cp_1_g-1_dg2cdjh9kcg3-fill-merged">
				<g>
					<path class="st1" d="M10,58c0,4.4,3.6,8,8,8h124c4.4,0,8-3.6,8-8V18c0-4.4-3.6-8-8-8H18c-4.4,0-8,3.6-8,8V58"/>
				</g>
			</g>
		</g>
		
			<g id="g-root-cp_1_g-1_dg2cdjh9kcg3-fill_00000050630228053417266340000016172817582330474940_" transform="translate(268, 136.03466796875)">
			<g id="cp_1_g-1_dg2cdjh9kcg3-fill-merged_00000129169230615940425610000005269408476951823266_">
				<g>
					<path class="st1" d="M10,58c0,4.4,3.6,8,8,8h124c4.4,0,8-3.6,8-8V18c0-4.4-3.6-8-8-8H18c-4.4,0-8,3.6-8,8V58"/>
				</g>
			</g>
		</g>
		<g id="g-root-cp_1-1_g-1-1_4kfc4nh9kd8s-fill" transform="translate(432, 122.03466796875)">
			<g id="cp_1-1_g-1-1_4kfc4nh9kd8s-fill-merged">
				<g>
					<path class="st1" d="M10,40c0,3.3,2.7,6,6,6h132c3.3,0,6-2.7,6-6V16c0-3.3-2.7-6-6-6H16c-3.3,0-6,2.7-6,6V40"/>
				</g>
			</g>
		</g>
		
			<g id="g-root-cp_1-1_g-1-1_4kfc4nh9kd8s-fill_00000016793470814700972670000011808067192394006924_" transform="translate(432, 121.99267578125)">
			<g id="cp_1-1_g-1-1_4kfc4nh9kd8s-fill-merged_00000141450287645483042450000010942231913856627111_">
				<g>
					<path class="st1" d="M10,40c0,3.3,2.7,6,6,6h132c3.3,0,6-2.7,6-6V16c0-3.3-2.7-6-6-6H16c-3.3,0-6,2.7-6,6V40"/>
				</g>
			</g>
		</g>
		<g id="g-root-cp_1-2_g-1-2_58b3bh9kav9-fill" transform="translate(432, 170.03466796875)">
			<g id="cp_1-2_g-1-2_58b3bh9kav9-fill-merged">
				<g>
					<path class="st1" d="M10,40c0,3.3,2.7,6,6,6h132c3.3,0,6-2.7,6-6V16c0-3.3-2.7-6-6-6H16c-3.3,0-6,2.7-6,6V40"/>
				</g>
			</g>
		</g>
		
			<g id="g-root-cp_1-2_g-1-2_58b3bh9kav9-fill_00000107550058626391770640000015526571906447085501_" transform="translate(432, 169.99267578125)">
			<g id="cp_1-2_g-1-2_58b3bh9kav9-fill-merged_00000078012228664242824850000006783674614645752721_">
				<g>
					<path class="st1" d="M10,40c0,3.3,2.7,6,6,6h132c3.3,0,6-2.7,6-6V16c0-3.3-2.7-6-6-6H16c-3.3,0-6,2.7-6,6V40"/>
				</g>
			</g>
		</g>
		<g id="g-root-cp_2_g-2_1qapctjh9kbgu-fill" transform="translate(267.9999694824219, 268.03466796875)">
			<g id="cp_2_g-2_1qapctjh9kbgu-fill-merged">
				<g>
					<path class="st2" d="M10,58c0,4.4,3.6,8,8,8h100c4.4,0,8-3.6,8-8V18c0-4.4-3.6-8-8-8H18c-4.4,0-8,3.6-8,8V58"/>
				</g>
			</g>
		</g>
		
			<g id="g-root-cp_2_g-2_1qapctjh9kbgu-fill_00000142171432579531881890000007598262338638972071_" transform="translate(268, 267.99267578125)">
			<g id="cp_2_g-2_1qapctjh9kbgu-fill-merged_00000119116701975089573860000015236607780208875144_">
				<g>
					<path class="st2" d="M10,58c0,4.4,3.6,8,8,8h100c4.4,0,8-3.6,8-8V18c0-4.4-3.6-8-8-8H18c-4.4,0-8,3.6-8,8V58"/>
				</g>
			</g>
		</g>
		<g id="g-root-cp_2-1_g-2-1_1cz8ug7h9kd1r-fill" transform="translate(408, 254.03466796875)">
			<g id="cp_2-1_g-2-1_1cz8ug7h9kd1r-fill-merged">
				<g>
					<path class="st2" d="M10,40c0,3.3,2.7,6,6,6h132c3.3,0,6-2.7,6-6V16c0-3.3-2.7-6-6-6H16c-3.3,0-6,2.7-6,6V40"/>
				</g>
			</g>
		</g>
		
			<g id="g-root-cp_2-1_g-2-1_1cz8ug7h9kd1r-fill_00000006670608026185346410000016572412333413824921_" transform="translate(408, 253.99267578125)">
			<g id="cp_2-1_g-2-1_1cz8ug7h9kd1r-fill-merged_00000126298075972398563840000004946716269119025343_">
				<g>
					<path class="st2" d="M10,40c0,3.3,2.7,6,6,6h132c3.3,0,6-2.7,6-6V16c0-3.3-2.7-6-6-6H16c-3.3,0-6,2.7-6,6V40"/>
				</g>
			</g>
		</g>
		<g id="g-root-cp_2-2_g-2-2_18k1tevh9kao8-fill" transform="translate(408, 302.03466796875)">
			<g id="cp_2-2_g-2-2_18k1tevh9kao8-fill-merged">
				<g>
					<path class="st2" d="M10,40c0,3.3,2.7,6,6,6h120c3.3,0,6-2.7,6-6V16c0-3.3-2.7-6-6-6H16c-3.3,0-6,2.7-6,6V40"/>
				</g>
			</g>
		</g>
		
			<g id="g-root-cp_2-2_g-2-2_18k1tevh9kao8-fill_00000135681547306842503460000009351079650278154927_" transform="translate(408, 301.99267578125)">
			<g id="cp_2-2_g-2-2_18k1tevh9kao8-fill-merged_00000021827496788729721700000008156431971676762032_">
				<g>
					<path class="st2" d="M10,40c0,3.3,2.7,6,6,6h120c3.3,0,6-2.7,6-6V16c0-3.3-2.7-6-6-6H16c-3.3,0-6,2.7-6,6V40"/>
				</g>
			</g>
		</g>
		<g id="g-root-cp_3_g-3_1448bafh9kbgh-fill" transform="translate(268, 406.03466796875)">
			<g id="cp_3_g-3_1448bafh9kbgh-fill-merged">
				<g>
					<path class="st3" d="M10,46c0,4.4,3.6,8,8,8h124c4.4,0,8-3.6,8-8V18c0-4.4-3.6-8-8-8H18c-4.4,0-8,3.6-8,8V46"/>
				</g>
			</g>
		</g>
		
			<g id="g-root-cp_3_g-3_1448bafh9kbgh-fill_00000016784095800126489100000016750329048075663244_" transform="translate(268, 405.99267578125)">
			<g id="cp_3_g-3_1448bafh9kbgh-fill-merged_00000041274146615850465640000002700373445847758758_">
				<g>
					<path class="st3" d="M10,46c0,4.4,3.6,8,8,8h124c4.4,0,8-3.6,8-8V18c0-4.4-3.6-8-8-8H18c-4.4,0-8,3.6-8,8V46"/>
				</g>
			</g>
		</g>
		<g id="g-root-cp_3-1_g-3-1_qsrsx3h9kd1e-fill" transform="translate(432, 386.03466796875)">
			<g id="cp_3-1_g-3-1_qsrsx3h9kd1e-fill-merged">
				<g>
					<path class="st3" d="M10,40c0,3.3,2.7,6,6,6h108c3.3,0,6-2.7,6-6V16c0-3.3-2.7-6-6-6H16c-3.3,0-6,2.7-6,6V40"/>
				</g>
			</g>
		</g>
		
			<g id="g-root-cp_3-1_g-3-1_qsrsx3h9kd1e-fill_00000115497168857029218740000005025083025241184404_" transform="translate(432, 385.99267578125)">
			<g id="cp_3-1_g-3-1_qsrsx3h9kd1e-fill-merged_00000103228921727547009630000012539592684455338119_">
				<g>
					<path class="st3" d="M10,40c0,3.3,2.7,6,6,6h108c3.3,0,6-2.7,6-6V16c0-3.3-2.7-6-6-6H16c-3.3,0-6,2.7-6,6V40"/>
				</g>
			</g>
		</g>
		<g id="g-root-cp_3-2_g-3-2_dhxrmvh9kbgj-fill" transform="translate(432, 434.03466796875)">
			<g id="cp_3-2_g-3-2_dhxrmvh9kbgj-fill-merged">
				<g>
					<path class="st3" d="M10,40c0,3.3,2.7,6,6,6h132c3.3,0,6-2.7,6-6V16c0-3.3-2.7-6-6-6H16c-3.3,0-6,2.7-6,6V40"/>
				</g>
			</g>
		</g>
		
			<g id="g-root-cp_3-2_g-3-2_dhxrmvh9kbgj-fill_00000090259346715657462500000007561422236387344548_" transform="translate(432, 433.99267578125)">
			<g id="cp_3-2_g-3-2_dhxrmvh9kbgj-fill-merged_00000003797792720922354830000008518239468107997091_">
				<g>
					<path class="st3" d="M10,40c0,3.3,2.7,6,6,6h132c3.3,0,6-2.7,6-6V16c0-3.3-2.7-6-6-6H16c-3.3,0-6,2.7-6,6V40"/>
				</g>
			</g>
		</g>
		<g id="g-root-cp_4_g-4_6h99jh9kd1g-fill" transform="translate(268, 532.03466796875)">
			<g id="cp_4_g-4_6h99jh9kd1g-fill-merged">
				<g>
					<path class="st4" d="M10,58c0,4.4,3.6,8,8,8h136c4.4,0,8-3.6,8-8V18c0-4.4-3.6-8-8-8H18c-4.4,0-8,3.6-8,8V58"/>
				</g>
			</g>
		</g>
		
			<g id="g-root-cp_4_g-4_6h99jh9kd1g-fill_00000159428710270107163130000015584256907966840499_" transform="translate(268, 531.99267578125)">
			<g id="cp_4_g-4_6h99jh9kd1g-fill-merged_00000109001485332890875950000004910206968497688230_">
				<g>
					<path class="st4" d="M10,58c0,4.4,3.6,8,8,8h136c4.4,0,8-3.6,8-8V18c0-4.4-3.6-8-8-8H18c-4.4,0-8,3.6-8,8V58"/>
				</g>
			</g>
		</g>
		<g id="g-root-cp_4-1_g-4-1_1qbyazrh9kdn1-fill" transform="translate(444, 518.03466796875)">
			<g id="cp_4-1_g-4-1_1qbyazrh9kdn1-fill-merged">
				<g>
					<path class="st4" d="M10,40c0,3.3,2.7,6,6,6h132c3.3,0,6-2.7,6-6V16c0-3.3-2.7-6-6-6H16c-3.3,0-6,2.7-6,6V40"/>
				</g>
			</g>
		</g>
		
			<g id="g-root-cp_4-1_g-4-1_1qbyazrh9kdn1-fill_00000026150094308255221410000017323430409445389197_" transform="translate(444, 517.99267578125)">
			<g id="cp_4-1_g-4-1_1qbyazrh9kdn1-fill-merged_00000155113929144730931230000003211408913281945478_">
				<g>
					<path class="st4" d="M10,40c0,3.3,2.7,6,6,6h132c3.3,0,6-2.7,6-6V16c0-3.3-2.7-6-6-6H16c-3.3,0-6,2.7-6,6V40"/>
				</g>
			</g>
		</g>
		<g id="g-root-cp_4-2_g-4-2_1lwr9yfh9kb9i-fill" transform="translate(444, 566.03466796875)">
			<g id="cp_4-2_g-4-2_1lwr9yfh9kb9i-fill-merged">
				<g>
					<path class="st4" d="M10,40c0,3.3,2.7,6,6,6h120c3.3,0,6-2.7,6-6V16c0-3.3-2.7-6-6-6H16c-3.3,0-6,2.7-6,6V40"/>
				</g>
			</g>
		</g>
		
			<g id="g-root-cp_4-2_g-4-2_1lwr9yfh9kb9i-fill_00000080896112697464196220000014602086376193146541_" transform="translate(444, 565.99267578125)">
			<g id="cp_4-2_g-4-2_1lwr9yfh9kb9i-fill-merged_00000096057363642249009470000011489005944882634894_">
				<g>
					<path class="st4" d="M10,40c0,3.3,2.7,6,6,6h120c3.3,0,6-2.7,6-6V16c0-3.3-2.7-6-6-6H16c-3.3,0-6,2.7-6,6V40"/>
				</g>
			</g>
		</g>
		<g id="g-root-cp_5_g-5_1d149pjh9kc27-fill" transform="translate(268, 675.99267578125)">
			<g id="cp_5_g-5_1d149pjh9kc27-fill-merged">
				<g>
					<path class="st5" d="M10,46c0,4.4,3.6,8,8,8h124c4.4,0,8-3.6,8-8V18c0-4.4-3.6-8-8-8H18c-4.4,0-8,3.6-8,8V46"/>
				</g>
			</g>
		</g>
		
			<g id="g-root-cp_5_g-5_1d149pjh9kc27-fill_00000057150276670485863770000016613003222500016037_" transform="translate(268, 676.03466796875)">
			<g id="cp_5_g-5_1d149pjh9kc27-fill-merged_00000117640271880821321810000015740644519803767984_">
				<g>
					<path class="st5" d="M10,46c0,4.4,3.6,8,8,8h124c4.4,0,8-3.6,8-8V18c0-4.4-3.6-8-8-8H18c-4.4,0-8,3.6-8,8V46"/>
				</g>
			</g>
		</g>
		<g id="g-root-cp_5-1_g-5-1_18larl3h9kcug-fill" transform="translate(432, 649.99267578125)">
			<g id="cp_5-1_g-5-1_18larl3h9kcug-fill-merged">
				<g>
					<path class="st5" d="M10,40c0,3.3,2.7,6,6,6h96c3.3,0,6-2.7,6-6V16c0-3.3-2.7-6-6-6H16c-3.3,0-6,2.7-6,6V40"/>
				</g>
			</g>
		</g>
		
			<g id="g-root-cp_5-1_g-5-1_18larl3h9kcug-fill_00000160909048041456828870000007580195676129008299_" transform="translate(432, 650.03466796875)">
			<g id="cp_5-1_g-5-1_18larl3h9kcug-fill-merged_00000031921028181979179180000007928753408143949990_">
				<g>
					<path class="st5" d="M10,40c0,3.3,2.7,6,6,6h96c3.3,0,6-2.7,6-6V16c0-3.3-2.7-6-6-6H16c-3.3,0-6,2.7-6,6V40"/>
				</g>
			</g>
		</g>
		<g id="g-root-cp_5-2_g-5-2_145h9gnh9kdmp-fill" transform="translate(432, 697.99267578125)">
			<g id="cp_5-2_g-5-2_145h9gnh9kdmp-fill-merged">
				<g>
					<path class="st5" d="M10,52c0,3.3,2.7,6,6,6h120c3.3,0,6-2.7,6-6V16c0-3.3-2.7-6-6-6H16c-3.3,0-6,2.7-6,6V52"/>
				</g>
			</g>
		</g>
		
			<g id="g-root-cp_5-2_g-5-2_145h9gnh9kdmp-fill_00000047054711530952615050000008391794864684156293_" transform="translate(432, 698.03466796875)">
			<g id="cp_5-2_g-5-2_145h9gnh9kdmp-fill-merged_00000081613120335227662420000010291939386856461473_">
				<g>
					<path class="st5" d="M10,52c0,3.3,2.7,6,6,6h120c3.3,0,6-2.7,6-6V16c0-3.3-2.7-6-6-6H16c-3.3,0-6,2.7-6,6V52"/>
				</g>
			</g>
		</g>
		<g id="g-root-cp_6_g-6_vagqavh9kb9m-fill" transform="translate(268, 813.99267578125)">
			<g id="cp_6_g-6_vagqavh9kb9m-fill-merged">
				<g>
					<path class="st6" d="M10,46c0,4.4,3.6,8,8,8h112c4.4,0,8-3.6,8-8V18c0-4.4-3.6-8-8-8H18c-4.4,0-8,3.6-8,8V46"/>
				</g>
			</g>
		</g>
		
			<g id="g-root-cp_6_g-6_vagqavh9kb9m-fill_00000166674878378195349270000004083327872513060526_" transform="translate(267.9999694824219, 814.03466796875)">
			<g id="cp_6_g-6_vagqavh9kb9m-fill-merged_00000142883422877822637470000018104752088936113851_">
				<g>
					<path class="st6" d="M10,46c0,4.4,3.6,8,8,8h112c4.4,0,8-3.6,8-8V18c0-4.4-3.6-8-8-8H18c-4.4,0-8,3.6-8,8V46"/>
				</g>
			</g>
		</g>
		<g id="g-root-cp_6-1_g-6-1_qun86fh9kc1v-fill" transform="translate(420, 793.99267578125)">
			<g id="cp_6-1_g-6-1_qun86fh9kc1v-fill-merged">
				<g>
					<path class="st6" d="M10,40c0,3.3,2.7,6,6,6h132c3.3,0,6-2.7,6-6V16c0-3.3-2.7-6-6-6H16c-3.3,0-6,2.7-6,6V40"/>
				</g>
			</g>
		</g>
		
			<g id="g-root-cp_6-1_g-6-1_qun86fh9kc1v-fill_00000021838834943078672850000005290587634818338455_" transform="translate(420, 794.03466796875)">
			<g id="cp_6-1_g-6-1_qun86fh9kc1v-fill-merged_00000083777659648522079930000006282506559829938078_">
				<g>
					<path class="st6" d="M10,40c0,3.3,2.7,6,6,6h132c3.3,0,6-2.7,6-6V16c0-3.3-2.7-6-6-6H16c-3.3,0-6,2.7-6,6V40"/>
				</g>
			</g>
		</g>
		<g id="g-root-cp_6-2_g-6-2_hz07xjh9kcuk-fill" transform="translate(420, 841.99267578125)">
			<g id="cp_6-2_g-6-2_hz07xjh9kcuk-fill-merged">
				<g>
					<path class="st6" d="M10,40c0,3.3,2.7,6,6,6h120c3.3,0,6-2.7,6-6V16c0-3.3-2.7-6-6-6H16c-3.3,0-6,2.7-6,6V40"/>
				</g>
			</g>
		</g>
		
			<g id="g-root-cp_6-2_g-6-2_hz07xjh9kcuk-fill_00000152948182654108140920000005983042682738634424_" transform="translate(420, 842.03466796875)">
			<g id="cp_6-2_g-6-2_hz07xjh9kcuk-fill-merged_00000031166625652040092340000012179564871403237527_">
				<g>
					<path class="st6" d="M10,40c0,3.3,2.7,6,6,6h120c3.3,0,6-2.7,6-6V16c0-3.3-2.7-6-6-6H16c-3.3,0-6,2.7-6,6V40"/>
				</g>
			</g>
		</g>
		<g id="g-root-he_dj6pt3h9kdmu-fill" transform="translate(178, 164.03466796875)">
		</g>
		
			<g id="g-root-he_dj6pt3h9kdmu-fill_00000057847817318986721810000006907987762925300359_" transform="translate(178, 163.99267578125)">
		</g>
		<g id="g-root-he_93zorrh9kb9c-fill" transform="translate(402, 139.99267578125)">
		</g>
		
			<g id="g-root-he_93zorrh9kb9c-fill_00000069364399640682907810000002275863129133776292_" transform="translate(402, 140.03466796875)">
		</g>
		<g id="g-root-he_8coivh9kc22-fill" transform="translate(378, 271.99267578125)">
		</g>
		
			<g id="g-root-he_8coivh9kc22-fill_00000064342086884826344250000010361286077452505755_" transform="translate(378, 272.03466796875)">
		</g>
		<g id="g-root-he_1utn8djh9kcn8-fill" transform="translate(402, 404.03466796875)">
		</g>
		
			<g id="g-root-he_1utn8djh9kcn8-fill_00000062888246002775562230000014659483528962654880_" transform="translate(402, 403.99267578125)">
		</g>
		<g id="g-root-he_1ly084nh9kdfy-fill" transform="translate(414, 535.99267578125)">
		</g>
		
			<g id="g-root-he_1ly084nh9kdfy-fill_00000067924501149297395000000001674953769235960990_" transform="translate(414, 536.03466796875)">
		</g>
		<g id="g-root-he_1hit73bh9kb2g-fill" transform="translate(402, 667.99267578125)">
		</g>
		
			<g id="g-root-he_1hit73bh9kb2g-fill_00000101076706235156997180000017845387978083895937_" transform="translate(402, 668.03466796875)">
		</g>
		<g id="g-root-he_1hit73bh9kb2i-fill" transform="translate(390, 812.03466796875)">
		</g>
		
			<g id="g-root-he_1hit73bh9kb2i-fill_00000049184232308551527270000006766055296923758519_" transform="translate(390, 811.99267578125)">
		</g>
		<g id="g-root-tx_rightwal_1cw4k6fh9kav6-fill" transform="translate(456, 524.03466796875)">
			<g id="tx_rightwal_1cw4k6fh9kav6-fill-merged">
				<g>
					<text transform="matrix(1 0 0 1 12 28.6)" class="st7 st8 st9">Right Wall Following</text>
				</g>
			</g>
		</g>
		<g id="g-root-tx_dynamicp_vbprmvh9ixhk-fill" transform="translate(284, 542.03466796875)">
			<g id="tx_dynamicp_vbprmvh9ixhk-fill-merged">
				<g>
					<text transform="matrix(1 0 0 1 12 27.6)" class="st7 st8 st9">Dynamic PID Setpoint </text>
					<text transform="matrix(1 0 0 1 12 41.6)" class="st7 st8 st9">Shifting</text>
				</g>
			</g>
		</g>
		<g id="g-root-tx_leftwall_dkfr53h9kd8o-fill" transform="translate(456, 572.03466796875)">
			<g id="tx_leftwall_dkfr53h9kd8o-fill-merged">
				<g>
					<text transform="matrix(1 0 0 1 12 28.6)" class="st7 st8 st9">Left Wall Following</text>
				</g>
			</g>
		</g>
		<g id="g-root-tx_robotnav_1ur5f6vh9aih4-fill" transform="translate(54, 482.03466796875)">
			<g id="tx_robotnav_1ur5f6vh9aih4-fill-merged">
				<g>
					<text transform="matrix(1 0 0 1 21.02 27.6)" class="st10 st11 st9">Obstacle Round </text>
					<text transform="matrix(1 0 0 1 14.49 41.6)" class="st10 st11 st9">Navigation System</text>
				</g>
			</g>
		</g>
		<g id="g-root-tx_greenobj_1cu94x3h9iygw-fill" transform="translate(444, 440.03466796875)">
			<g id="tx_greenobj_1cu94x3h9iygw-fill-merged">
				<g>
					<text transform="matrix(1 0 0 1 12 28.6)" class="st12 st8 st9">Green Object (Right)</text>
				</g>
			</g>
		</g>
		<g id="g-root-tx_obstacle_1q7l2jrh9hhqg-fill" transform="translate(284, 416.03466796875)">
			<g id="tx_obstacle_1q7l2jrh9hhqg-fill-merged">
				<g>
					<text transform="matrix(1 0 0 1 12 28.6)" class="st12 st8 st9">Obstacle Detection</text>
				</g>
			</g>
		</g>
		<g id="g-root-tx_setpoint_hte1bbh9n5l6-fill" transform="translate(444, 656.03466796875)">
			<g id="tx_setpoint_hte1bbh9n5l6-fill-merged">
				<g>
					<text transform="matrix(1 0 0 1 12 28.6)" class="st13 st8 st9">Setpoint Reset</text>
				</g>
			</g>
		</g>
		<g id="g-root-tx_redobjec_qrixwnh9hhje-fill" transform="translate(444, 392.03466796875)">
			<g id="tx_redobjec_qrixwnh9hhje-fill-merged">
				<g>
					<text transform="matrix(1 0 0 1 12 28.6)" class="st12 st8 st9">Red Object (Left)</text>
				</g>
			</g>
		</g>
		<g id="g-root-tx_pidcontr_i0vqcnh9eqyw-fill" transform="translate(420, 308.03466796875)">
			<g id="tx_pidcontr_i0vqcnh9eqyw-fill-merged">
				<g>
					<text transform="matrix(1 0 0 1 12 28.6)" class="st14 st8 st9">PID Control System</text>
				</g>
			</g>
		</g>
		<g id="g-root-tx_returnin_1qf2rl3h9lqf4-fill" transform="translate(284, 686.03466796875)">
			<g id="tx_returnin_1qf2rl3h9lqf4-fill-merged">
				<g>
					<text transform="matrix(1 0 0 1 12 28.6)" class="st13 st8 st9">Returning to Center</text>
				</g>
			</g>
		</g>
		<g id="g-root-tx_normalna_18mjsx3h9n408-fill" transform="translate(444, 704.03466796875)">
			<g id="tx_normalna_18mjsx3h9n408-fill-merged">
				<g>
					<text transform="matrix(1 0 0 1 12 27.6)" class="st13 st8 st9">Normal Navigation </text>
					<text transform="matrix(1 0 0 1 12 41.6)" class="st13 st8 st9">Resumption</text>
				</g>
			</g>
		</g>
		<g id="g-root-tx_normalla_13z8lrbh9er60-fill" transform="translate(284, 278.03466796875)">
			<g id="tx_normalla_13z8lrbh9er60-fill-merged">
				<g>
					<text transform="matrix(1 0 0 1 12 27.6)" class="st14 st8 st9">Normal Lane </text>
					<text transform="matrix(1 0 0 1 12 41.6)" class="st14 st8 st9">Following</text>
				</g>
			</g>
		</g>
		<g id="g-root-tx_centerla_4j6h47h9eqyy-fill" transform="translate(420, 260.03466796875)">
			<g id="tx_centerla_4j6h47h9eqyy-fill-merged">
				<g>
					<text transform="matrix(1 0 0 1 12 28.6)" class="st14 st8 st9">Center Lane Setpoint</text>
				</g>
			</g>
		</g>
		<g id="g-root-tx_pidloopi_zlaiw7h9dcso-fill" transform="translate(444, 176.03466796875)">
			<g id="tx_pidloopi_zlaiw7h9dcso-fill-merged">
				<g>
					<text transform="matrix(1 0 0 1 12 28.6)" class="st15 st8 st9">PID Loop Initialization</text>
				</g>
			</g>
		</g>
		<g id="g-root-tx_lanecolo_1lviexzh9bxfm-fill" transform="translate(444, 128.03466796875)">
			<g id="tx_lanecolo_1lviexzh9bxfm-fill-merged">
				<g>
					<text transform="matrix(1 0 0 1 12 28.6)" class="st15 st8 st9">Lane Color Detection</text>
				</g>
			</g>
		</g>
		<g id="g-root-tx_initiali_zlwzzbh9bw8w-fill" transform="translate(284, 146.03466796875)">
			<g id="tx_initiali_zlwzzbh9bw8w-fill-merged">
				<g>
					<text transform="matrix(1 0 0 1 12 27.6)" class="st15 st8 st9">Initialization &amp; </text>
					<text transform="matrix(1 0 0 1 12 41.6)" class="st15 st8 st9">Direction Detection</text>
				</g>
			</g>
		</g>
		<g id="g-root-tx_robotnav_94m90nh9943u-fill" transform="translate(304, 38.03466796875)">
			<g id="tx_robotnav_94m90nh9943u-fill-merged">
			</g>
		</g>
		<g id="g-root-tx_lapcompl_zn5y5jh9oky6-fill" transform="translate(284, 824.03466796875)">
			<g id="tx_lapcompl_zn5y5jh9oky6-fill-merged">
				<g>
					<text transform="matrix(1 0 0 1 12 28.6)" class="st16 st8 st9">Lap Completion</text>
				</g>
			</g>
		</g>
		<g id="g-root-tx_collisio_1lviexzh9py4o-fill" transform="translate(432, 848.03466796875)">
			<g id="tx_collisio_1lviexzh9py4o-fill-merged">
				<g>
					<text transform="matrix(1 0 0 1 12 28.6)" class="st16 st8 st9">Collision Avoidance</text>
				</g>
			</g>
		</g>
		<g id="g-root-tx_obstacle_1lymsdjh9ol56-fill" transform="translate(432, 800.03466796875)">
			<g id="tx_obstacle_1lymsdjh9ol56-fill-merged">
				<g>
					<text transform="matrix(1 0 0 1 12 28.6)" class="st16 st8 st9">Obstacle Navigation</text>
				</g>
			</g>
		</g>
		<g id="g-root-cp_start_g-start_hvvuhzh9kbnu-stroke" transform="translate(32, 464.03466796875)">
		</g>
		
			<g id="g-root-cp_start_g-start_hvvuhzh9kbnu-stroke_00000092434124309326683910000007492202288469736336_" transform="translate(32, 463.99267578125)">
		</g>
		<g id="g-root-cp_1_g-1_dg2cdjh9kcg3-stroke" transform="translate(268, 135.99267578125)">
		</g>
		
			<g id="g-root-cp_1_g-1_dg2cdjh9kcg3-stroke_00000080891674283354993760000013528732332481219261_" transform="translate(268, 136.03466796875)">
		</g>
		<g id="g-root-cp_1-1_g-1-1_4kfc4nh9kd8s-stroke" transform="translate(432, 122.03466796875)">
		</g>
		
			<g id="g-root-cp_1-1_g-1-1_4kfc4nh9kd8s-stroke_00000076568083829685632950000007794598088953743287_" transform="translate(432, 121.99267578125)">
		</g>
		<g id="g-root-cp_1-2_g-1-2_58b3bh9kav9-stroke" transform="translate(432, 170.03466796875)">
		</g>
		
			<g id="g-root-cp_1-2_g-1-2_58b3bh9kav9-stroke_00000173118749321406729060000004367561139062025139_" transform="translate(432, 169.99267578125)">
		</g>
		<g id="g-root-cp_2_g-2_1qapctjh9kbgu-stroke" transform="translate(267.9999694824219, 268.03466796875)">
		</g>
		
			<g id="g-root-cp_2_g-2_1qapctjh9kbgu-stroke_00000157997003872155305610000004574245962263234237_" transform="translate(268, 267.99267578125)">
		</g>
		<g id="g-root-cp_2-1_g-2-1_1cz8ug7h9kd1r-stroke" transform="translate(408, 254.03466796875)">
		</g>
		
			<g id="g-root-cp_2-1_g-2-1_1cz8ug7h9kd1r-stroke_00000036945761854007732270000011454700370403621258_" transform="translate(408, 253.99267578125)">
		</g>
		<g id="g-root-cp_2-2_g-2-2_18k1tevh9kao8-stroke" transform="translate(408, 302.03466796875)">
		</g>
		
			<g id="g-root-cp_2-2_g-2-2_18k1tevh9kao8-stroke_00000103963174291889880500000013136941492237560978_" transform="translate(408, 301.99267578125)">
		</g>
		<g id="g-root-cp_3_g-3_1448bafh9kbgh-stroke" transform="translate(268, 406.03466796875)">
		</g>
		
			<g id="g-root-cp_3_g-3_1448bafh9kbgh-stroke_00000028319925094129139970000001576350560529985455_" transform="translate(268, 405.99267578125)">
		</g>
		<g id="g-root-cp_3-1_g-3-1_qsrsx3h9kd1e-stroke" transform="translate(432, 386.03466796875)">
		</g>
		
			<g id="g-root-cp_3-1_g-3-1_qsrsx3h9kd1e-stroke_00000113322773224012544120000011977053891792111752_" transform="translate(432, 385.99267578125)">
		</g>
		<g id="g-root-cp_3-2_g-3-2_dhxrmvh9kbgj-stroke" transform="translate(432, 434.03466796875)">
		</g>
		
			<g id="g-root-cp_3-2_g-3-2_dhxrmvh9kbgj-stroke_00000180339292887007655900000003638912298215541638_" transform="translate(432, 433.99267578125)">
		</g>
		<g id="g-root-cp_4_g-4_6h99jh9kd1g-stroke" transform="translate(268, 532.03466796875)">
		</g>
		
			<g id="g-root-cp_4_g-4_6h99jh9kd1g-stroke_00000126303344614096536580000000020900487704549280_" transform="translate(268, 531.99267578125)">
		</g>
		<g id="g-root-cp_4-1_g-4-1_1qbyazrh9kdn1-stroke" transform="translate(444, 518.03466796875)">
		</g>
		
			<g id="g-root-cp_4-1_g-4-1_1qbyazrh9kdn1-stroke_00000066508620557180316460000015584032978488096669_" transform="translate(444, 517.99267578125)">
		</g>
		<g id="g-root-cp_4-2_g-4-2_1lwr9yfh9kb9i-stroke" transform="translate(444, 566.03466796875)">
		</g>
		
			<g id="g-root-cp_4-2_g-4-2_1lwr9yfh9kb9i-stroke_00000117639539124546668680000011605600030760820382_" transform="translate(444, 565.99267578125)">
		</g>
		<g id="g-root-cp_5_g-5_1d149pjh9kc27-stroke" transform="translate(268, 675.99267578125)">
		</g>
		
			<g id="g-root-cp_5_g-5_1d149pjh9kc27-stroke_00000020372372980455118940000012626729733618341017_" transform="translate(268, 676.03466796875)">
		</g>
		<g id="g-root-cp_5-1_g-5-1_18larl3h9kcug-stroke" transform="translate(432, 649.99267578125)">
		</g>
		
			<g id="g-root-cp_5-1_g-5-1_18larl3h9kcug-stroke_00000109751135029457792750000001752513785181937819_" transform="translate(432, 650.03466796875)">
		</g>
		<g id="g-root-cp_5-2_g-5-2_145h9gnh9kdmp-stroke" transform="translate(432, 697.99267578125)">
		</g>
		
			<g id="g-root-cp_5-2_g-5-2_145h9gnh9kdmp-stroke_00000104689091630733934190000006171549557286414519_" transform="translate(432, 698.03466796875)">
		</g>
		<g id="g-root-cp_6_g-6_vagqavh9kb9m-stroke" transform="translate(268, 813.99267578125)">
		</g>
		
			<g id="g-root-cp_6_g-6_vagqavh9kb9m-stroke_00000064349986918589907060000013117755427564811428_" transform="translate(267.9999694824219, 814.03466796875)">
		</g>
		<g id="g-root-cp_6-1_g-6-1_qun86fh9kc1v-stroke" transform="translate(420, 793.99267578125)">
		</g>
		
			<g id="g-root-cp_6-1_g-6-1_qun86fh9kc1v-stroke_00000016754146920837172330000012759886837009521561_" transform="translate(420, 794.03466796875)">
		</g>
		<g id="g-root-cp_6-2_g-6-2_hz07xjh9kcuk-stroke" transform="translate(420, 841.99267578125)">
		</g>
		
			<g id="g-root-cp_6-2_g-6-2_hz07xjh9kcuk-stroke_00000044172995129397944160000011742778773707500176_" transform="translate(420, 842.03466796875)">
		</g>
		<g id="g-root-he_dj6pt3h9kdmu-stroke" transform="translate(178, 164.03466796875)">
			<g id="he_dj6pt3h9kdmu-stroke">
				<g>
					<path class="st17" d="M10,346h48 M106,10H70c-6.6,0-12,5.4-12,12l0,648c0,6.6,5.4,12,12,12h36 M58,142h48 M58,274h48 M58,406
						h48 M58,544h48"/>
				</g>
			</g>
		</g>
		
			<g id="g-root-he_dj6pt3h9kdmu-stroke_00000094589097172822784600000009203365320488502185_" transform="translate(178, 163.99267578125)">
			<g id="he_dj6pt3h9kdmu-stroke_00000028294375484632193660000002430088357141780375_">
				<g>
					<path class="st17" d="M10,346h48 M106,10H70c-6.6,0-12,5.4-12,12v648c0,6.6,5.4,12,12,12h36 M58,142h48 M58,274h48 M58,406h48
						 M58,544h48"/>
				</g>
			</g>
		</g>
		<g id="g-root-he_93zorrh9kb9c-stroke" transform="translate(402, 139.99267578125)">
			<g id="he_93zorrh9kb9c-stroke">
				<g>
					<path class="st18" d="M10,34h18 M46,10h-6c-6.6,0-12,5.4-12,12l0,24c0,6.6,5.4,12,12,12h6"/>
				</g>
			</g>
		</g>
		
			<g id="g-root-he_93zorrh9kb9c-stroke_00000115483010761601777920000010511977835471776429_" transform="translate(402, 140.03466796875)">
			<g id="he_93zorrh9kb9c-stroke_00000057844001892029746510000000090781641269027482_">
				<g>
					<path class="st18" d="M10,34h18 M46,10h-6c-6.6,0-12,5.4-12,12l0,24c0,6.6,5.4,12,12,12l6,0"/>
				</g>
			</g>
		</g>
		<g id="g-root-he_8coivh9kc22-stroke" transform="translate(378, 271.99267578125)">
			<g id="he_8coivh9kc22-stroke">
				<g>
					<path class="st19" d="M10,34h18 M46,10h-6c-6.6,0-12,5.4-12,12l0,24c0,6.6,5.4,12,12,12h6"/>
				</g>
			</g>
		</g>
		
			<g id="g-root-he_8coivh9kc22-stroke_00000141452588496268562400000014700454906246739134_" transform="translate(378, 272.03466796875)">
			<g id="he_8coivh9kc22-stroke_00000146489614983388786660000016651118209451393704_">
				<g>
					<path class="st19" d="M10,34h18 M46,10h-6c-6.6,0-12,5.4-12,12l0,24c0,6.6,5.4,12,12,12l6,0"/>
				</g>
			</g>
		</g>
		<g id="g-root-he_1utn8djh9kcn8-stroke" transform="translate(402, 404.03466796875)">
			<g id="he_1utn8djh9kcn8-stroke">
				<g>
					<path class="st20" d="M10,34h18 M46,10h-6c-6.6,0-12,5.4-12,12l0,24c0,6.6,5.4,12,12,12l6,0"/>
				</g>
			</g>
		</g>
		
			<g id="g-root-he_1utn8djh9kcn8-stroke_00000005963996890367215150000013257592322089352891_" transform="translate(402, 403.99267578125)">
			<g id="he_1utn8djh9kcn8-stroke_00000062893187020242027330000009376827032710104712_">
				<g>
					<path class="st20" d="M10,34h18 M46,10h-6c-6.6,0-12,5.4-12,12l0,24c0,6.6,5.4,12,12,12h6"/>
				</g>
			</g>
		</g>
		<g id="g-root-he_1ly084nh9kdfy-stroke" transform="translate(414, 535.99267578125)">
			<g id="he_1ly084nh9kdfy-stroke">
				<g>
					<path class="st21" d="M10,34h18 M46,10h-6c-6.6,0-12,5.4-12,12l0,24c0,6.6,5.4,12,12,12h6"/>
				</g>
			</g>
		</g>
		
			<g id="g-root-he_1ly084nh9kdfy-stroke_00000135675757743872089340000014139308062457438906_" transform="translate(414, 536.03466796875)">
			<g id="he_1ly084nh9kdfy-stroke_00000029042864253383907410000005044266293384382855_">
				<g>
					<path class="st21" d="M10,34h18 M46,10h-6c-6.6,0-12,5.4-12,12l0,24c0,6.6,5.4,12,12,12l6,0"/>
				</g>
			</g>
		</g>
		<g id="g-root-he_1hit73bh9kb2g-stroke" transform="translate(402, 667.99267578125)">
			<g id="he_1hit73bh9kb2g-stroke">
				<g>
					<path class="st22" d="M10,40h18 M46,10h-6c-6.6,0-12,5.4-12,12l0,30c0,6.6,5.4,12,12,12h6"/>
				</g>
			</g>
		</g>
		
			<g id="g-root-he_1hit73bh9kb2g-stroke_00000052096155861337047230000008317481840166926753_" transform="translate(402, 668.03466796875)">
			<g id="he_1hit73bh9kb2g-stroke_00000134964471657527091730000002089040619503009451_">
				<g>
					<path class="st22" d="M10,40h18 M46,10h-6c-6.6,0-12,5.4-12,12l0,30c0,6.6,5.4,12,12,12h6"/>
				</g>
			</g>
		</g>
		<g id="g-root-he_1hit73bh9kb2i-stroke" transform="translate(390, 812.03466796875)">
			<g id="he_1hit73bh9kb2i-stroke">
				<g>
					<path class="st23" d="M10,34h18 M46,10h-6c-6.6,0-12,5.4-12,12l0,24c0,6.6,5.4,12,12,12l6,0"/>
				</g>
			</g>
		</g>
		
			<g id="g-root-he_1hit73bh9kb2i-stroke_00000102531658576085720060000012938517738683043261_" transform="translate(390, 811.99267578125)">
			<g id="he_1hit73bh9kb2i-stroke_00000087410231721484421480000015015808144927651004_">
				<g>
					<path class="st23" d="M10,34h18 M46,10h-6c-6.6,0-12,5.4-12,12l0,24c0,6.6,5.4,12,12,12h6"/>
				</g>
			</g>
		</g>
		<g id="g-root-tx_rightwal_1cw4k6fh9kav6-stroke" transform="translate(456, 524.03466796875)">
		</g>
		<g id="g-root-tx_dynamicp_vbprmvh9ixhk-stroke" transform="translate(284, 542.03466796875)">
		</g>
		<g id="g-root-tx_leftwall_dkfr53h9kd8o-stroke" transform="translate(456, 572.03466796875)">
		</g>
		<g id="g-root-tx_robotnav_1ur5f6vh9aih4-stroke" transform="translate(54, 482.03466796875)">
		</g>
		<g id="g-root-tx_greenobj_1cu94x3h9iygw-stroke" transform="translate(444, 440.03466796875)">
		</g>
		<g id="g-root-tx_obstacle_1q7l2jrh9hhqg-stroke" transform="translate(284, 416.03466796875)">
		</g>
		<g id="g-root-tx_setpoint_hte1bbh9n5l6-stroke" transform="translate(444, 656.03466796875)">
		</g>
		<g id="g-root-tx_redobjec_qrixwnh9hhje-stroke" transform="translate(444, 392.03466796875)">
		</g>
		<g id="g-root-tx_pidcontr_i0vqcnh9eqyw-stroke" transform="translate(420, 308.03466796875)">
		</g>
		<g id="g-root-tx_returnin_1qf2rl3h9lqf4-stroke" transform="translate(284, 686.03466796875)">
		</g>
		<g id="g-root-tx_normalna_18mjsx3h9n408-stroke" transform="translate(444, 704.03466796875)">
		</g>
		<g id="g-root-tx_normalla_13z8lrbh9er60-stroke" transform="translate(284, 278.03466796875)">
		</g>
		<g id="g-root-tx_centerla_4j6h47h9eqyy-stroke" transform="translate(420, 260.03466796875)">
		</g>
		<g id="g-root-tx_pidloopi_zlaiw7h9dcso-stroke" transform="translate(444, 176.03466796875)">
		</g>
		<g id="g-root-tx_lanecolo_1lviexzh9bxfm-stroke" transform="translate(444, 128.03466796875)">
		</g>
		<g id="g-root-tx_initiali_zlwzzbh9bw8w-stroke" transform="translate(284, 146.03466796875)">
		</g>
		<g id="g-root-tx_robotnav_94m90nh9943u-stroke" transform="translate(304, 38.03466796875)">
		</g>
		<g id="g-root-tx_lapcompl_zn5y5jh9oky6-stroke" transform="translate(284, 824.03466796875)">
		</g>
		<g id="g-root-tx_collisio_1lviexzh9py4o-stroke" transform="translate(432, 848.03466796875)">
		</g>
		<g id="g-root-tx_obstacle_1lymsdjh9ol56-stroke" transform="translate(432, 800.03466796875)">
		</g>
	</g>
</g>
</svg>
