<?xml version="1.0" encoding="utf-8"?>
<!-- Generator: Adobe Illustrator 27.3.1, SVG Export Plug-In . SVG Version: 6.00 Build 0)  -->
<svg version="1.1" id="Layer_1" xmlns="http://www.w3.org/2000/svg" xmlns:xlink="http://www.w3.org/1999/xlink" x="0px" y="0px"
	 viewBox="0 0 644 841" style="enable-background:new 0 0 644 841;" xml:space="preserve">
<style type="text/css">
	.st0{fill-rule:evenodd;clip-rule:evenodd;fill:#545454;}
	.st1{fill-rule:evenodd;clip-rule:evenodd;fill:#5C4938;}
	.st2{fill-rule:evenodd;clip-rule:evenodd;fill:#68403F;}
	.st3{fill-rule:evenodd;clip-rule:evenodd;fill:#69425A;}
	.st4{fill-rule:evenodd;clip-rule:evenodd;fill:#60436D;}
	.st5{fill-rule:evenodd;clip-rule:evenodd;fill:#4C4371;}
	.st6{fill:#ABABAB;}
	.st7{font-family:'Arial-BoldMT';}
	.st8{font-size:11.7px;}
	.st9{fill:#F366BB;}
	.st10{font-family:'ArialMT';}
	.st11{fill:#8769FD;}
	.st12{fill:#F79438;}
	.st13{fill:#CB68F9;}
	.st14{fill:#FB6762;}
	.st15{fill:none;stroke:#FFFFFF;stroke-width:2;stroke-linecap:round;stroke-linejoin:round;}
	.st16{fill:none;stroke:#F79438;stroke-width:2;stroke-linecap:round;stroke-linejoin:round;}
	.st17{fill:none;stroke:#FB6762;stroke-width:2;stroke-linecap:round;stroke-linejoin:round;}
	.st18{fill:none;stroke:#F366BB;stroke-width:2;stroke-linecap:round;stroke-linejoin:round;}
	.st19{fill:none;stroke:#CB68F9;stroke-width:2;stroke-linecap:round;stroke-linejoin:round;}
	.st20{fill:none;stroke:#8769FD;stroke-width:2;stroke-linecap:round;stroke-linejoin:round;}
</style>
<g id="items">
	<g id="blend">
		<g id="g-root-cp_start_g-start_8zrpzddx2j1-fill" transform="translate(40, 398.01123046875)">
			<g id="cp_start_g-start_8zrpzddx2j1-fill-merged">
				<g>
					<path class="st0" d="M10,21c0-6.1,4.9-11,11-11h130c6.1,0,11,4.9,11,11v50c0,6.1-4.9,11-11,11H21c-6.1,0-11-4.9-11-11V21"/>
				</g>
			</g>
		</g>
		<g id="g-root-cp_1_g-1_1uuabknddx346-fill" transform="translate(276, 142.01123046875)">
			<g id="cp_1_g-1_1uuabknddx346-fill-merged">
				<g>
					<path class="st1" d="M10,46c0,4.4,3.6,8,8,8h124c4.4,0,8-3.6,8-8V18c0-4.4-3.6-8-8-8H18c-4.4,0-8,3.6-8,8V46"/>
				</g>
			</g>
		</g>
		<g id="g-root-cp_1-1_g-1-1_1lz9sevddx0r3-fill" transform="translate(440, 122.01123046875)">
			<g id="cp_1-1_g-1-1_1lz9sevddx0r3-fill-merged">
				<g>
					<path class="st1" d="M10,40c0,3.3,2.7,6,6,6h120c3.3,0,6-2.7,6-6V16c0-3.3-2.7-6-6-6H16c-3.3,0-6,2.7-6,6V40"/>
				</g>
			</g>
		</g>
		<g id="g-root-cp_1-2_g-1-2_1d3ms5zddx2bk-fill" transform="translate(440, 170.01123046875)">
			<g id="cp_1-2_g-1-2_1d3ms5zddx2bk-fill-merged">
				<g>
					<path class="st1" d="M10,40c0,3.3,2.7,6,6,6h132c3.3,0,6-2.7,6-6V16c0-3.3-2.7-6-6-6H16c-3.3,0-6,2.7-6,6V40"/>
				</g>
			</g>
		</g>
		<g id="g-root-cp_2_g-2_147zrx3ddx349-fill" transform="translate(276, 268.01123046875)">
			<g id="cp_2_g-2_147zrx3ddx349-fill-merged">
				<g>
					<path class="st2" d="M10,58c0,4.4,3.6,8,8,8h124c4.4,0,8-3.6,8-8V18c0-4.4-3.6-8-8-8H18c-4.4,0-8,3.6-8,8V58"/>
				</g>
			</g>
		</g>
		<g id="g-root-cp_2-1_g-2-1_zit8nrddby82-fill" transform="translate(440, 254.01123046875)">
			<g id="cp_2-1_g-2-1_zit8nrddby82-fill-merged">
				<g>
					<path class="st2" d="M10,40c0,3.3,2.7,6,6,6h96c3.3,0,6-2.7,6-6V16c0-3.3-2.7-6-6-6H16c-3.3,0-6,2.7-6,6V40"/>
				</g>
			</g>
		</g>
		<g id="g-root-cp_2-2_g-2-2_qn68evddbz0r-fill" transform="translate(440, 302.01123046875)">
			<g id="cp_2-2_g-2-2_qn68evddbz0r-fill-merged">
				<g>
					<path class="st2" d="M10,40c0,3.3,2.7,6,6,6h132c3.3,0,6-2.7,6-6V16c0-3.3-2.7-6-6-6H16c-3.3,0-6,2.7-6,6V40"/>
				</g>
			</g>
		</g>
		<g id="g-root-cp_3_g-3_m7cqafddbzt0-fill" transform="translate(276, 412.01123046875)">
			<g id="cp_3_g-3_m7cqafddbzt0-fill-merged">
				<g>
					<path class="st3" d="M10,46c0,4.4,3.6,8,8,8h100c4.4,0,8-3.6,8-8V18c0-4.4-3.6-8-8-8H18c-4.4,0-8,3.6-8,8V46"/>
				</g>
			</g>
		</g>
		<g id="g-root-cp_3-1_g-3-1_dbpq1jddc0lp-fill" transform="translate(416, 386.01123046875)">
			<g id="cp_3-1_g-3-1_dbpq1jddc0lp-fill-merged">
				<g>
					<path class="st3" d="M10,52c0,3.3,2.7,6,6,6h108c3.3,0,6-2.7,6-6V16c0-3.3-2.7-6-6-6H16c-3.3,0-6,2.7-6,6V52"/>
				</g>
			</g>
		</g>
		<g id="g-root-cp_3-2_g-3-2_vorbddbz0u-fill" transform="translate(416, 446.01123046875)">
			<g id="cp_3-2_g-3-2_vorbddbz0u-fill-merged">
				<g>
					<path class="st3" d="M10,40c0,3.3,2.7,6,6,6h120c3.3,0,6-2.7,6-6V16c0-3.3-2.7-6-6-6H16c-3.3,0-6,2.7-6,6V40"/>
				</g>
			</g>
		</g>
		<g id="g-root-cp_4_g-4_1lqj8d3ddc0en-fill" transform="translate(276, 550.01123046875)">
			<g id="cp_4_g-4_1lqj8d3ddc0en-fill-merged">
				<g>
					<path class="st4" d="M10,46c0,4.4,3.6,8,8,8h112c4.4,0,8-3.6,8-8V18c0-4.4-3.6-8-8-8H18c-4.4,0-8,3.6-8,8V46"/>
				</g>
			</g>
		</g>
		<g id="g-root-cp_4-1_g-4-1_1hbc7brddby14-fill" transform="translate(428, 530.01123046875)">
			<g id="cp_4-1_g-4-1_1hbc7brddby14-fill-merged">
				<g>
					<path class="st4" d="M10,40c0,3.3,2.7,6,6,6h96c3.3,0,6-2.7,6-6V16c0-3.3-2.7-6-6-6H16c-3.3,0-6,2.7-6,6V40"/>
				</g>
			</g>
		</g>
		<g id="g-root-cp_4-2_g-4-2_1cvip7bddbytd-fill" transform="translate(428, 578.01123046875)">
			<g id="cp_4-2_g-4-2_1cvip7bddbytd-fill-merged">
				<g>
					<path class="st4" d="M10,40c0,3.3,2.7,6,6,6h132c3.3,0,6-2.7,6-6V16c0-3.3-2.7-6-6-6H16c-3.3,0-6,2.7-6,6V40"/>
				</g>
			</g>
		</g>
		<g id="g-root-cp_5_g-5_13zvoyfddbzm2-fill" transform="translate(276, 682.01123046875)">
			<g id="cp_5_g-5_13zvoyfddbzm2-fill-merged">
				<g>
					<path class="st5" d="M10,46c0,4.4,3.6,8,8,8h124c4.4,0,8-3.6,8-8V18c0-4.4-3.6-8-8-8H18c-4.4,0-8,3.6-8,8V46"/>
				</g>
			</g>
		</g>
		<g id="g-root-cp_5-1_g-5-1_zk26tzddc0eb-fill" transform="translate(440, 662.01123046875)">
			<g id="cp_5-1_g-5-1_zk26tzddc0eb-fill-merged">
				<g>
					<path class="st5" d="M10,40c0,3.3,2.7,6,6,6h132c3.3,0,6-2.7,6-6V16c0-3.3-2.7-6-6-6H16c-3.3,0-6,2.7-6,6V40"/>
				</g>
			</g>
		</g>
		<g id="g-root-cp_5-2_g-5-2_qp1no7ddby18-fill" transform="translate(440, 710.01123046875)">
			<g id="cp_5-2_g-5-2_qp1no7ddby18-fill-merged">
				<g>
					<path class="st5" d="M10,40c0,3.3,2.7,6,6,6h132c3.3,0,6-2.7,6-6V16c0-3.3-2.7-6-6-6H16c-3.3,0-6,2.7-6,6V40"/>
				</g>
			</g>
		</g>
		<g id="g-root-he_m985jrddbyti-fill" transform="translate(186, 164.01123046875)">
		</g>
		<g id="g-root-he_htenfbddbzls-fill" transform="translate(410, 140.01123046875)">
		</g>
		<g id="g-root-he_htenfbddbzlu-fill" transform="translate(410, 272.01123046875)">
		</g>
		<g id="g-root-he_8xrn6fddc0ek-fill" transform="translate(386, 410.01123046875)">
		</g>
		<g id="g-root-he_8xrn6fddc0em-fill" transform="translate(398, 548.01123046875)">
		</g>
		<g id="g-root-he_4ikm53ddby14-fill" transform="translate(410, 680.01123046875)">
		</g>
		<g id="g-root-tx_autonomo_24mxjddokqr-fill" transform="translate(62, 416.01123046875)">
			<g id="tx_autonomo_24mxjddokqr-fill-merged">
				<g>
					<text transform="matrix(1 0 0 1 11.87 27.6)" class="st6 st7 st8">Open Round</text>
					<text transform="matrix(1 0 0 1 13.03 41.6)" class="st6 st7 st8">Navigation System</text>
				</g>
			</g>
		</g>
		<g id="g-root-tx_lapcount_hss6c7ddrdvv-fill" transform="translate(292, 422.01123046875)">
			<g id="tx_lapcount_hss6c7ddrdvv-fill-merged">
				<g>
					<text transform="matrix(1 0 0 1 12 28.6)" class="st9 st10 st8">Lap Counting</text>
				</g>
			</g>
		</g>
		<g id="g-root-tx_noobstac_1i5ufddu8le-fill" transform="translate(452, 716.01123046875)">
			<g id="tx_noobstac_1i5ufddu8le-fill-merged">
				<g>
					<text transform="matrix(1 0 0 1 12 28.6)" class="st11 st10 st8">No Obstacle Handling</text>
				</g>
			</g>
		</g>
		<g id="g-root-tx_lapcount_mcz02fddrgg4-fill" transform="translate(428, 452.01123046875)">
			<g id="tx_lapcount_mcz02fddrgg4-fill-merged">
				<g>
					<text transform="matrix(1 0 0 1 12 28.6)" class="st9 st10 st8">Lap Counter Logic</text>
				</g>
			</g>
		</g>
		<g id="g-root-tx_placemen_1utnxnbddomwz-fill" transform="translate(452, 128.01123046875)">
			<g id="tx_placemen_1utnxnbddomwz-fill-merged">
				<g>
					<text transform="matrix(1 0 0 1 12 28.6)" class="st12 st10 st8">Placement on Track</text>
				</g>
			</g>
		</g>
		<g id="g-root-tx_motorcon_dcyo7rddssu9-fill" transform="translate(440, 536.01123046875)">
			<g id="tx_motorcon_dcyo7rddssu9-fill-merged">
				<g>
					<text transform="matrix(1 0 0 1 12 28.6)" class="st13 st10 st8">Motor Control</text>
				</g>
			</g>
		</g>
		<g id="g-root-tx_startfin_4j7387ddreh2-fill" transform="translate(428, 392.01123046875)">
			<g id="tx_startfin_4j7387ddreh2-fill-merged">
				<g>
					<text transform="matrix(1 0 0 1 12 27.6)" class="st9 st10 st8">Start/Finish Line </text>
					<text transform="matrix(1 0 0 1 12 41.6)" class="st9 st10 st8">Detection</text>
				</g>
			</g>
		</g>
		<g id="g-root-tx_speedsta_4pfu3bddrg26-fill" transform="translate(292, 560.01123046875)">
			<g id="tx_speedsta_4pfu3bddrg26-fill-merged">
				<g>
					<text transform="matrix(1 0 0 1 12 28.6)" class="st13 st10 st8">Speed &amp; Stability</text>
				</g>
			</g>
		</g>
		<g id="g-root-tx_pidloopa_145hyqfddq22x-fill" transform="translate(452, 308.01123046875)">
			<g id="tx_pidloopa_145hyqfddq22x-fill-merged">
				<g>
					<text transform="matrix(1 0 0 1 12 28.6)" class="st14 st10 st8">PID Loop Application</text>
				</g>
			</g>
		</g>
		<g id="g-root-tx_stabilit_zmk36fddsu13-fill" transform="translate(440, 584.01123046875)">
			<g id="tx_stabilit_zmk36fddsu13-fill-merged">
				<g>
					<text transform="matrix(1 0 0 1 12 28.6)" class="st13 st10 st8">Stability During Turns</text>
				</g>
			</g>
		</g>
		<g id="g-root-tx_completi_dj7f2vddsufd-fill" transform="translate(292, 692.01123046875)">
			<g id="tx_completi_dj7f2vddsufd-fill-merged">
				<g>
					<text transform="matrix(1 0 0 1 12 28.6)" class="st11 st10 st8">Completion Criteria</text>
				</g>
			</g>
		</g>
		<g id="g-root-tx_startini_14490k7ddolql-fill" transform="translate(292, 152.01123046875)">
			<g id="tx_startini_14490k7ddolql-fill-merged">
				<g>
					<text transform="matrix(1 0 0 1 12 28.6)" class="st12 st10 st8">Start &amp; Initialization</text>
				</g>
			</g>
		</g>
		<g id="g-root-tx_objectiv_qvwvmfddsv0k-fill" transform="translate(452, 668.01123046875)">
			<g id="tx_objectiv_qvwvmfddsv0k-fill-merged">
				<g>
					<text transform="matrix(1 0 0 1 12 28.6)" class="st11 st10 st8">Objective Completion</text>
				</g>
			</g>
		</g>
		<g id="g-root-tx_linefoll_1ltnlsnddpzb4-fill" transform="translate(292, 278.01123046875)">
			<g id="tx_linefoll_1ltnlsnddpzb4-fill-merged">
				<g>
					<text transform="matrix(1 0 0 1 12 27.6)" class="st14 st10 st8">Line Following with </text>
					<text transform="matrix(1 0 0 1 12 41.6)" class="st14 st10 st8">PID</text>
				</g>
			</g>
		</g>
		<g id="g-root-tx_lanedete_1cz9jpzddq29w-fill" transform="translate(452, 260.01123046875)">
			<g id="tx_lanedete_1cz9jpzddq29w-fill-merged">
				<g>
					<text transform="matrix(1 0 0 1 12 28.6)" class="st14 st10 st8">Lane Detection</text>
				</g>
			</g>
		</g>
		<g id="g-root-tx_systemin_i0wcgnddom4u-fill" transform="translate(452, 176.01123046875)">
			<g id="tx_systemin_i0wcgnddom4u-fill-merged">
				<g>
					<text transform="matrix(1 0 0 1 12 28.6)" class="st12 st10 st8">System Initialization</text>
				</g>
			</g>
		</g>
		<g id="g-root-cp_start_g-start_8zrpzddx2j1-stroke" transform="translate(40, 398.01123046875)">
		</g>
		<g id="g-root-cp_1_g-1_1uuabknddx346-stroke" transform="translate(276, 142.01123046875)">
		</g>
		<g id="g-root-cp_1-1_g-1-1_1lz9sevddx0r3-stroke" transform="translate(440, 122.01123046875)">
		</g>
		<g id="g-root-cp_1-2_g-1-2_1d3ms5zddx2bk-stroke" transform="translate(440, 170.01123046875)">
		</g>
		<g id="g-root-cp_2_g-2_147zrx3ddx349-stroke" transform="translate(276, 268.01123046875)">
		</g>
		<g id="g-root-cp_2-1_g-2-1_zit8nrddby82-stroke" transform="translate(440, 254.01123046875)">
		</g>
		<g id="g-root-cp_2-2_g-2-2_qn68evddbz0r-stroke" transform="translate(440, 302.01123046875)">
		</g>
		<g id="g-root-cp_3_g-3_m7cqafddbzt0-stroke" transform="translate(276, 412.01123046875)">
		</g>
		<g id="g-root-cp_3-1_g-3-1_dbpq1jddc0lp-stroke" transform="translate(416, 386.01123046875)">
		</g>
		<g id="g-root-cp_3-2_g-3-2_vorbddbz0u-stroke" transform="translate(416, 446.01123046875)">
		</g>
		<g id="g-root-cp_4_g-4_1lqj8d3ddc0en-stroke" transform="translate(276, 550.01123046875)">
		</g>
		<g id="g-root-cp_4-1_g-4-1_1hbc7brddby14-stroke" transform="translate(428, 530.01123046875)">
		</g>
		<g id="g-root-cp_4-2_g-4-2_1cvip7bddbytd-stroke" transform="translate(428, 578.01123046875)">
		</g>
		<g id="g-root-cp_5_g-5_13zvoyfddbzm2-stroke" transform="translate(276, 682.01123046875)">
		</g>
		<g id="g-root-cp_5-1_g-5-1_zk26tzddc0eb-stroke" transform="translate(440, 662.01123046875)">
		</g>
		<g id="g-root-cp_5-2_g-5-2_qp1no7ddby18-stroke" transform="translate(440, 710.01123046875)">
		</g>
		<g id="g-root-he_m985jrddbyti-stroke" transform="translate(186, 164.01123046875)">
			<g id="he_m985jrddbyti-stroke">
				<g>
					<path class="st15" d="M10,280h48 M106,10H70c-6.6,0-12,5.4-12,12v516c0,6.6,5.4,12,12,12h36 M58,142h48 M58,280h48 M58,418h48"
						/>
				</g>
			</g>
		</g>
		<g id="g-root-he_htenfbddbzls-stroke" transform="translate(410, 140.01123046875)">
			<g id="he_htenfbddbzls-stroke">
				<g>
					<path class="st16" d="M10,34h18 M46,10h-6c-6.6,0-12,5.4-12,12v24c0,6.6,5.4,12,12,12h6"/>
				</g>
			</g>
		</g>
		<g id="g-root-he_htenfbddbzlu-stroke" transform="translate(410, 272.01123046875)">
			<g id="he_htenfbddbzlu-stroke">
				<g>
					<path class="st17" d="M10,34h18 M46,10h-6c-6.6,0-12,5.4-12,12v24c0,6.6,5.4,12,12,12h6"/>
				</g>
			</g>
		</g>
		<g id="g-root-he_8xrn6fddc0ek-stroke" transform="translate(386, 410.01123046875)">
			<g id="he_8xrn6fddc0ek-stroke">
				<g>
					<path class="st18" d="M10,34h18 M46,10h-6c-6.6,0-12,5.4-12,12v30c0,6.6,5.4,12,12,12h6"/>
				</g>
			</g>
		</g>
		<g id="g-root-he_8xrn6fddc0em-stroke" transform="translate(398, 548.01123046875)">
			<g id="he_8xrn6fddc0em-stroke">
				<g>
					<path class="st19" d="M10,34h18 M46,10h-6c-6.6,0-12,5.4-12,12v24c0,6.6,5.4,12,12,12h6"/>
				</g>
			</g>
		</g>
		<g id="g-root-he_4ikm53ddby14-stroke" transform="translate(410, 680.01123046875)">
			<g id="he_4ikm53ddby14-stroke">
				<g>
					<path class="st20" d="M10,34h18 M46,10h-6c-6.6,0-12,5.4-12,12v24c0,6.6,5.4,12,12,12h6"/>
				</g>
			</g>
		</g>
		<g id="g-root-tx_autonomo_24mxjddokqr-stroke" transform="translate(62, 416.01123046875)">
		</g>
		<g id="g-root-tx_lapcount_hss6c7ddrdvv-stroke" transform="translate(292, 422.01123046875)">
		</g>
		<g id="g-root-tx_noobstac_1i5ufddu8le-stroke" transform="translate(452, 716.01123046875)">
		</g>
		<g id="g-root-tx_lapcount_mcz02fddrgg4-stroke" transform="translate(428, 452.01123046875)">
		</g>
		<g id="g-root-tx_placemen_1utnxnbddomwz-stroke" transform="translate(452, 128.01123046875)">
		</g>
		<g id="g-root-tx_motorcon_dcyo7rddssu9-stroke" transform="translate(440, 536.01123046875)">
		</g>
		<g id="g-root-tx_startfin_4j7387ddreh2-stroke" transform="translate(428, 392.01123046875)">
		</g>
		<g id="g-root-tx_speedsta_4pfu3bddrg26-stroke" transform="translate(292, 560.01123046875)">
		</g>
		<g id="g-root-tx_pidloopa_145hyqfddq22x-stroke" transform="translate(452, 308.01123046875)">
		</g>
		<g id="g-root-tx_stabilit_zmk36fddsu13-stroke" transform="translate(440, 584.01123046875)">
		</g>
		<g id="g-root-tx_completi_dj7f2vddsufd-stroke" transform="translate(292, 692.01123046875)">
		</g>
		<g id="g-root-tx_startini_14490k7ddolql-stroke" transform="translate(292, 152.01123046875)">
		</g>
		<g id="g-root-tx_objectiv_qvwvmfddsv0k-stroke" transform="translate(452, 668.01123046875)">
		</g>
		<g id="g-root-tx_linefoll_1ltnlsnddpzb4-stroke" transform="translate(292, 278.01123046875)">
		</g>
		<g id="g-root-tx_lanedete_1cz9jpzddq29w-stroke" transform="translate(452, 260.01123046875)">
		</g>
		<g id="g-root-tx_systemin_i0wcgnddom4u-stroke" transform="translate(452, 176.01123046875)">
		</g>
	</g>
</g>
</svg>
